<?xml version="1.0" encoding="UTF-8"?>
<svg version="1.1" xmlns="http://www.w3.org/2000/svg" width="506" height="418">
<path d="M0 0 C166.98 0 333.96 0 506 0 C506 137.94 506 275.88 506 418 C339.02 418 172.04 418 0 418 C0 280.06 0 142.12 0 0 Z " fill="#FEFEFE" transform="translate(0,0)"/>
<path d="M0 0 C4.75934185 0.57772358 8.480783 2.70245279 12.5625 5.0625 C13.27212891 5.46879639 13.98175781 5.87509277 14.71289062 6.29370117 C20.99843241 9.93027533 27.07423314 13.79917406 33 18 C33.60279785 18.42619629 34.2055957 18.85239258 34.82666016 19.29150391 C44.63185918 26.2776158 53.59684998 33.86627285 62.21826172 42.26513672 C63.94863127 43.94998271 65.69404209 45.61796939 67.44140625 47.28515625 C74.5205223 54.11584594 80.77367774 61.32866646 86.65722656 69.20849609 C88.00207029 71.00276214 89.3702424 72.77718437 90.7421875 74.55078125 C114.17303394 105.2153675 129.70393588 142.60578144 136.17578125 180.53125 C136.85554415 184.45765418 137.82810815 188.19263084 139 192 C139.09498779 191.40276123 139.18997559 190.80552246 139.2878418 190.19018555 C149.46908473 126.99397202 180.15885193 66.29360904 232 27 C232.65242676 26.49291504 233.30485352 25.98583008 233.97705078 25.46337891 C243.08493087 18.39667436 252.3700833 11.9289281 262.375 6.1875 C263.2604248 5.67791748 264.14584961 5.16833496 265.05810547 4.64331055 C269.08755476 2.3911932 272.40321773 0.74527414 277 0 C283.59092437 11.83514544 290.14705706 23.68936371 296.68701172 35.55273438 C297.38508714 36.81901262 298.08316659 38.08528865 298.78125 39.3515625 C299.12970978 39.98366638 299.47816956 40.61577026 299.83718872 41.26702881 C302.25200104 45.64640704 304.67180782 50.02299912 307.09375 54.3984375 C314.18567751 67.21583045 321.21085098 80.06444447 328.13769531 92.97216797 C332.11773641 100.38206132 336.16460028 107.75032182 340.265625 115.09375 C343.74189219 121.32052814 347.18183893 127.56738034 350.625 133.8125 C351.31200763 135.05843324 351.99901937 136.30436422 352.68603516 137.55029297 C353.733364 139.44967659 354.78067729 141.34906877 355.82791138 143.24850464 C358.27127749 147.67980633 360.71708406 152.10975468 363.1640625 156.5390625 C367.11431648 163.6899901 371.05939645 170.84374911 375 178 C375.61020996 179.10778809 376.22041992 180.21557617 376.84912109 181.35693359 C378.54823084 184.44466294 380.24361276 187.53440324 381.9375 190.625 C382.43991211 191.53757568 382.94232422 192.45015137 383.45996094 193.39038086 C383.91532227 194.2231958 384.37068359 195.05601074 384.83984375 195.9140625 C385.23550537 196.6354541 385.63116699 197.3568457 386.03881836 198.10009766 C387 200 387 200 388 203 C223.33 203 58.66 203 -111 203 C-109.59145276 199.47863191 -108.20714513 196.37149141 -106.41796875 193.0703125 C-105.64864014 191.6486377 -105.64864014 191.6486377 -104.86376953 190.19824219 C-104.31060059 189.18407227 -103.75743164 188.16990234 -103.1875 187.125 C-102.31907471 185.52640137 -102.31907471 185.52640137 -101.43310547 183.89550781 C-97.05020729 175.85564749 -92.55139479 167.88597628 -88.01831055 159.93017578 C-83.38480354 151.76153602 -78.95211017 143.49050406 -74.5425415 135.1998291 C-69.80260659 126.29365328 -64.91686088 117.48371449 -59.9140625 108.72265625 C-55.64591811 101.21696819 -51.55410732 93.62263095 -47.5 86 C-42.94463253 77.43488757 -38.31080177 68.9250157 -33.5 60.5 C-28.62970043 51.96925886 -23.93182119 43.3557536 -19.3125 34.6875 C-14.98905929 26.57508457 -10.65262291 18.47305358 -6.1875 10.4375 C-5.7850708 9.71199951 -5.3826416 8.98649902 -4.96801758 8.23901367 C-3.39501147 5.42127199 -1.79111309 2.68666964 0 0 Z " fill="#023C81" transform="translate(116,211)"/>
<path d="M0 0 C2.89866553 2.54116889 4.43597591 5.39190553 6.22265625 8.78515625 C6.83882813 9.94724609 7.455 11.10933594 8.08984375 12.30664062 C8.41194824 12.91999268 8.73405273 13.53334473 9.06591797 14.1652832 C10.74246586 17.3569671 12.43714836 20.53901681 14.12890625 23.72265625 C14.63020554 24.66789658 14.63020554 24.66789658 15.14163208 25.63223267 C20.99644227 36.66241039 27.11071536 47.53672291 33.43359375 58.3046875 C37.30929122 64.97359336 40.89699901 71.79461915 44.47412109 78.62670898 C49.35829444 87.95112488 54.38420998 97.18192291 59.52636719 106.36621094 C68.96207049 123.23042022 78.28379556 140.15130756 87.46337891 157.15625 C89.92556151 161.71289172 92.39774542 166.26403707 94.875 170.8125 C95.35138916 171.68817627 95.82777832 172.56385254 96.31860352 173.46606445 C99.18428396 178.71894427 102.0865249 183.95022165 105.015625 189.16796875 C105.70464045 190.39800225 106.39360543 191.62806403 107.08251953 192.8581543 C108.41624602 195.23924252 109.75673613 197.61634566 111.10107422 199.99145508 C111.70967285 201.0770874 112.31827148 202.16271973 112.9453125 203.28125 C113.48687988 204.24095703 114.02844727 205.20066406 114.58642578 206.18945312 C116.03500527 209.06959943 117.05727317 211.92091877 118 215 C116.96101562 215.70125 115.92203125 216.4025 114.8515625 217.125 C106.97876352 222.46749293 99.30194833 227.88808439 92 234 C91.0203125 234.79535156 90.040625 235.59070313 89.03125 236.41015625 C76.46683199 246.70119685 64.88650579 258.09550823 55 271 C54.07050013 272.1772315 53.14079973 273.3543047 52.2109375 274.53125 C23.17930313 311.73693185 5.61811298 357.12959965 1 404 C0.67 404 0.34 404 0 404 C-0.14695312 402.70191406 -0.29390625 401.40382813 -0.4453125 400.06640625 C-7.20101433 343.97471924 -31.16934659 293.89381046 -70 253 C-70.75821045 252.19876709 -70.75821045 252.19876709 -71.53173828 251.38134766 C-79.44251226 243.08083177 -87.81053508 235.84404682 -97 229 C-97.97283936 228.26789307 -97.97283936 228.26789307 -98.96533203 227.52099609 C-100.95104348 226.02796907 -102.94255669 224.54316473 -104.9375 223.0625 C-105.84121338 222.38936768 -105.84121338 222.38936768 -106.76318359 221.70263672 C-110.69737729 218.82031988 -114.72679817 216.35217112 -119 214 C-118.01 213.67 -117.02 213.34 -116 213 C-115.31700215 211.00551802 -114.65547589 209.00369554 -114 207 C-112.22714061 203.55536866 -110.2584375 200.22419702 -108.3125 196.875 C-103.26696609 188.07613294 -98.38636027 179.20572839 -93.625 170.25 C-88.02779184 159.73038712 -82.30464762 149.28885302 -76.49584961 138.8840332 C-72.33868495 131.43061638 -68.2405688 123.94800385 -64.1875 116.4375 C-60.17332799 109.00062335 -56.12671474 101.58489953 -52.01171875 94.20336914 C-48.05361269 87.10312372 -44.11673293 79.99125183 -40.1875 72.875 C-39.84330017 72.25176849 -39.49910034 71.62853699 -39.14447021 70.98641968 C-34.49021922 62.5558137 -29.88125557 54.10233086 -25.3125 45.625 C-20.48005003 36.66105271 -15.52762819 27.77121444 -10.48754883 18.92236328 C-6.91843273 12.65383351 -3.43441691 6.34333676 0 0 Z " fill="#B5D784" transform="translate(254,7)"/>
<path d="M0 0 C4.75934185 0.57772358 8.480783 2.70245279 12.5625 5.0625 C13.27212891 5.46879639 13.98175781 5.87509277 14.71289062 6.29370117 C20.99843241 9.93027533 27.07423314 13.79917406 33 18 C33.60279785 18.42619629 34.2055957 18.85239258 34.82666016 19.29150391 C44.63185918 26.2776158 53.59684998 33.86627285 62.21826172 42.26513672 C63.94863127 43.94998271 65.69404209 45.61796939 67.44140625 47.28515625 C74.5205223 54.11584594 80.77367774 61.32866646 86.65722656 69.20849609 C88.00207029 71.00276214 89.3702424 72.77718437 90.7421875 74.55078125 C119.17647269 111.76350393 133.58358178 155.9604451 139 202 C56.83 202 -25.34 202 -110 202 C-108.47992145 197.43976435 -107.06294928 194.02434358 -104.76171875 189.9140625 C-104.44468491 189.34398972 -104.12765106 188.77391693 -103.80101013 188.18656921 C-103.12094749 186.96491654 -102.43861738 185.7445238 -101.75421143 184.52529907 C-100.3020284 181.93829945 -98.86072326 179.3452993 -97.41900635 176.75245667 C-96.68235108 175.42764955 -95.94516607 174.10313685 -95.2074585 172.77891541 C-91.79614098 166.65061807 -88.45295189 160.48643497 -85.125 154.3125 C-80.7313599 146.17590835 -76.28380009 138.07280545 -71.78125 129.99609375 C-68.23414916 123.63116541 -64.70955472 117.2538095 -61.1875 110.875 C-60.84330017 110.25176849 -60.49910034 109.62853699 -60.14447021 108.98641968 C-55.49021976 100.55581468 -50.88116749 92.10237749 -46.3125 83.625 C-42.17393762 75.9464355 -37.9439458 68.32849041 -33.625 60.75 C-28.37997122 51.54324957 -23.33661135 42.23797503 -18.35348511 32.88809204 C-14.34949065 25.37547051 -10.32250081 17.87895711 -6.1875 10.4375 C-5.7850708 9.71199951 -5.3826416 8.98649902 -4.96801758 8.23901367 C-3.39501147 5.42127199 -1.79111309 2.68666964 0 0 Z " fill="#016E3F" transform="translate(116,211)"/>
<path d="M0 0 C4.33548726 3.80546655 6.57735601 9.21441977 9.26269531 14.22485352 C10.25128653 16.0648946 11.25398521 17.8967516 12.2578125 19.72851562 C12.87914062 20.88158203 13.50046875 22.03464844 14.140625 23.22265625 C14.99962402 24.81219116 14.99962402 24.81219116 15.87597656 26.43383789 C16.43236816 27.70408813 16.43236816 27.70408813 17 29 C16.67 29.66 16.34 30.32 16 31 C14.68 30.67 13.36 30.34 12 30 C12.495 28.515 12.495 28.515 13 27 C11.515 26.505 11.515 26.505 10 26 C10 25.34 10 24.68 10 24 C8.89322541 19.0201456 8.89322541 19.0201456 6 15 C5.25151494 13.68878529 4.54622517 12.35239442 3.875 11 C3.52179688 10.29875 3.16859375 9.5975 2.8046875 8.875 C2 7 2 7 2 5 C-1.58333452 7.2694452 -2.59650422 9.05266811 -4 13 C-5.005312 15.02677359 -6.04642406 17.03186473 -7.09765625 19.03515625 C-8.06286349 20.9703902 -8.06286349 20.9703902 -8.49609375 23.05859375 C-9 25 -9 25 -11 28 C-11.66 28 -12.32 28 -13 28 C-13.268125 28.721875 -13.53625 29.44375 -13.8125 30.1875 C-15 33 -15 33 -16.625 35.625 C-18.25051814 37.97532776 -18.25051814 37.97532776 -18 41 C-18.66 41 -19.32 41 -20 41 C-23.1547869 46.32241899 -23.1547869 46.32241899 -23.4375 52.125 C-23.293125 52.74375 -23.14875 53.3625 -23 54 C-24.3125 55.75 -24.3125 55.75 -26 57 C-26.66 57 -27.32 57 -28 57 C-30.04169485 59.90548882 -31 61.40142046 -31 65 C-31.99 65.495 -31.99 65.495 -33 66 C-33.495 67.155 -33.99 68.31 -34.5 69.5 C-36 73 -36 73 -38 74 C-39.05047644 76.31104818 -40.05007438 78.64583651 -41 81 C-41.33 81.66 -41.66 82.32 -42 83 C-41.01 83.99 -41.01 83.99 -40 85 C-40.495 86.485 -40.495 86.485 -41 88 C-42.32 87.67 -43.64 87.34 -45 87 C-46.25664978 89.90600261 -47 91.79604584 -47 95 C-48.485 95.495 -48.485 95.495 -50 96 C-51.71243535 98.82048175 -52.80234084 101.9309984 -54 105 C-54.350625 105.86625 -54.70125 106.7325 -55.0625 107.625 C-55.76177347 109.3964928 -56.39774008 111.19322023 -57 113 C-58.2065625 114.175625 -58.2065625 114.175625 -59.4375 115.375 C-61.96264822 117.9617372 -62.93020726 119.61232299 -64 123 C-65 126 -65 126 -68 128 C-68.64934531 130.05629457 -68.64934531 130.05629457 -68.9375 132.375 C-69.7262696 136.48974808 -70.75367757 138.2455446 -74 141 C-75.04349839 142.63978318 -76.05607981 144.30094366 -77 146 C-78.13024568 143.22953981 -78.0672135 142.16908929 -76.94287109 139.34057617 C-76.39195801 138.33486572 -75.84104492 137.32915527 -75.2734375 136.29296875 C-74.35328857 134.59394409 -74.35328857 134.59394409 -73.41455078 132.8605957 C-72.73503447 131.6360451 -72.05517607 130.41168427 -71.375 129.1875 C-70.68512901 127.92521812 -69.99617331 126.6624356 -69.30810547 125.39916992 C-64.46533574 116.53627096 -59.50267184 107.73955948 -54.50219727 98.96484375 C-50.95831457 92.7387627 -47.54871744 86.45755544 -44.2253418 80.11157227 C-40.89494743 73.7626069 -37.41563256 67.50233105 -33.921875 61.2421875 C-30.32504071 54.7968025 -26.75489785 48.33670574 -23.1875 41.875 C-22.84731842 41.25904968 -22.50713684 40.64309937 -22.15664673 40.00848389 C-16.71025247 30.14351779 -11.3197717 20.24968464 -5.98510742 10.32373047 C-5.23837769 8.93758545 -5.23837769 8.93758545 -4.4765625 7.5234375 C-4.04424316 6.71825684 -3.61192383 5.91307617 -3.16650391 5.08349609 C-2.19124273 3.3415792 -1.10737511 1.66106267 0 0 Z " fill="#70B048" transform="translate(254,7)"/>
<path d="M0 0 C1.65 0.33 3.3 0.66 5 1 C1.15941133 5.71843751 -2.97821722 9.99300382 -7.3125 14.25 C-12.98125445 19.85805773 -18.12361265 25.68060007 -23 32 C-23.44666016 32.56493164 -23.89332031 33.12986328 -24.35351562 33.71191406 C-42.5198604 56.70868746 -56.67908888 83.20751158 -66 111 C-66.33 111 -66.66 111 -67 111 C-66 102.42857143 -66 102.42857143 -65 99 C-64.34 99 -63.68 99 -63 99 C-62.67 96.36 -62.34 93.72 -62 91 C-60.515 90.505 -60.515 90.505 -59 90 C-59 87.36 -59 84.72 -59 82 C-58.360625 81.773125 -57.72125 81.54625 -57.0625 81.3125 C-54.7752725 80.19642238 -54.7752725 80.19642238 -54.5 77.8125 C-54.2525 76.4203125 -54.2525 76.4203125 -54 75 C-53.34768622 73.7928135 -52.65706312 72.60584987 -51.9375 71.4375 C-49.67265796 68.07688578 -49.67265796 68.07688578 -50 64 C-48.5625 62.375 -48.5625 62.375 -47 61 C-46.67 60.34 -46.34 59.68 -46 59 C-45.34 58.34 -44.68 57.68 -44 57 C-42.92089704 55.18844891 -41.88368169 53.3516862 -40.875 51.5 C-40.33617187 50.5203125 -39.79734375 49.540625 -39.2421875 48.53125 C-37.85314953 46.17069419 -37.85314953 46.17069419 -38 44 C-37.01 44 -36.02 44 -35 44 C-34.505 43.01 -34.505 43.01 -34 42 C-31.38613861 37.12871287 -31.38613861 37.12871287 -28 36 C-26.48324337 32.58729758 -27.27216412 29.55830874 -28 26 C-27.34 26 -26.68 26 -26 26 C-25.34 26.99 -24.68 27.98 -24 29 C-24 28.01 -24 27.02 -24 26 C-22.35 25.67 -20.7 25.34 -19 25 C-19.20625 24.21625 -19.4125 23.4325 -19.625 22.625 C-19.74875 21.75875 -19.8725 20.8925 -20 20 C-18.66666667 18.66666667 -17.33333333 17.33333333 -16 16 C-16 16.66 -16 17.32 -16 18 C-15.01 18 -14.02 18 -13 18 C-12.773125 17.071875 -12.54625 16.14375 -12.3125 15.1875 C-10.76919967 11.43948491 -9.53941962 10.76970981 -6 9 C-3.84934216 7.21266773 -3.84934216 7.21266773 -3.5625 4.9375 C-3.2840625 3.9784375 -3.2840625 3.9784375 -3 3 C-2.01 2.67 -1.02 2.34 0 2 C0 1.34 0 0.68 0 0 Z " fill="#E1EFE2" transform="translate(332,246)"/>
<path d="M0 0 C2.70715008 2.41548749 4.21429696 4.97261957 5.8984375 8.171875 C6.45329834 9.21649902 7.00815918 10.26112305 7.57983398 11.33740234 C8.17223877 12.46355957 8.76464355 13.5897168 9.375 14.75 C10.64075101 17.13483465 11.91148158 19.51699082 13.18359375 21.8984375 C13.50487747 22.50052032 13.82616119 23.10260315 14.15718079 23.72293091 C17.15707269 29.32787131 20.28220649 34.8565492 23.4375 40.375 C29.13245052 50.35462195 34.58383493 60.45403788 39.97631836 70.59912109 C40.57323486 71.72141113 41.17015137 72.84370117 41.78515625 74 C42.34219238 75.04929687 42.89922852 76.09859375 43.47314453 77.1796875 C44.74520574 79.52935988 46.06520746 81.83095828 47.43359375 84.125 C49 87 49 87 49 90 C48.01 89.67 47.02 89.34 46 89 C46 88.34 46 87.68 46 87 C45.06842516 85.1009053 44.07782317 83.23067002 43.0625 81.375 C42.4334375 80.22128906 41.804375 79.06757812 41.15625 77.87890625 C39.63383365 75.12558491 38.0877529 72.38652778 36.53125 69.65234375 C35.91624634 68.56977295 35.91624634 68.56977295 35.28881836 67.46533203 C34.47878661 66.04330138 33.66456843 64.62364635 32.84594727 63.20654297 C30 58.21979512 30 58.21979512 30 56 C28.515 55.505 28.515 55.505 27 55 C26.05078125 52.49609375 26.05078125 52.49609375 25.3125 49.4375 C25.06113281 48.42558594 24.80976563 47.41367188 24.55078125 46.37109375 C24.36902344 45.58863281 24.18726563 44.80617187 24 44 C23.34 44 22.68 44 22 44 C21.16180842 42.37750059 20.3295884 40.75191503 19.5 39.125 C19.0359375 38.22007813 18.571875 37.31515625 18.09375 36.3828125 C17 34 17 34 17 32 C16.38125 31.77828125 15.7625 31.5565625 15.125 31.328125 C12.25761837 29.53601148 11.97792558 27.94572109 11 24.75 C9.50311942 20.25935827 7.73104251 16.88966661 5 13 C0 3.91690544 0 3.91690544 0 0 Z " fill="#75B14D" transform="translate(271,38)"/>
<path d="M0 0 C2.475 0.495 2.475 0.495 5 1 C1.15945267 5.71838672 -2.97790949 9.99335854 -7.3125 14.25 C-16.55665555 23.3830322 -24.29793359 33.56670437 -32 44 C-32.58203125 42.140625 -32.58203125 42.140625 -33 40 C-31.6875 37.75 -31.6875 37.75 -30 36 C-29.34 36 -28.68 36 -28 36 C-26.7619986 32.42355152 -27.25073929 29.66305234 -28 26 C-27.34 26 -26.68 26 -26 26 C-25.34 26.99 -24.68 27.98 -24 29 C-24 28.01 -24 27.02 -24 26 C-22.35 25.67 -20.7 25.34 -19 25 C-19.20625 24.21625 -19.4125 23.4325 -19.625 22.625 C-19.74875 21.75875 -19.8725 20.8925 -20 20 C-18.66666667 18.66666667 -17.33333333 17.33333333 -16 16 C-16 16.66 -16 17.32 -16 18 C-15.01 18 -14.02 18 -13 18 C-12.773125 17.071875 -12.54625 16.14375 -12.3125 15.1875 C-10.76919967 11.43948491 -9.53941962 10.76970981 -6 9 C-3.84934216 7.21266773 -3.84934216 7.21266773 -3.5625 4.9375 C-3.376875 4.298125 -3.19125 3.65875 -3 3 C-2.01 2.67 -1.02 2.34 0 2 C0 1.34 0 0.68 0 0 Z " fill="#D8E7C2" transform="translate(332,246)"/>
<path d="M0 0 C0.66 0 1.32 0 2 0 C1.75765625 0.92296875 1.5153125 1.8459375 1.265625 2.796875 C-2.93290863 19.03289628 -6.22899346 35.3152542 -8 52 C-8.33 52 -8.66 52 -9 52 C-9.08040527 51.37544922 -9.16081055 50.75089844 -9.24365234 50.10742188 C-9.61591829 47.23762844 -9.99540882 44.36883334 -10.375 41.5 C-10.50132812 40.51773438 -10.62765625 39.53546875 -10.7578125 38.5234375 C-11.34519838 34.1180434 -11.97581986 29.80507261 -13.09375 25.5 C-13.95768822 22.16341102 -14.17128696 19.42573923 -14 16 C-13.34 16.33 -12.68 16.66 -12 17 C-11.59270772 19.32156597 -11.25561323 21.6568787 -11 24 C-10.34 24 -9.68 24 -9 24 C-9.33 25.98 -9.66 27.96 -10 30 C-9.01 29.67 -8.02 29.34 -7 29 C-6.93941406 28.36191406 -6.87882812 27.72382813 -6.81640625 27.06640625 C-6.73261719 26.24011719 -6.64882813 25.41382813 -6.5625 24.5625 C-6.48128906 23.73878906 -6.40007812 22.91507812 -6.31640625 22.06640625 C-6 20 -6 20 -5 19 C-4.92794489 17.31391034 -4.91613932 15.62499341 -4.9375 13.9375 C-4.95103516 12.55884766 -4.95103516 12.55884766 -4.96484375 11.15234375 C-4.97644531 10.44207031 -4.98804688 9.73179687 -5 9 C-4.34 8.67 -3.68 8.34 -3 8 C-2.09656316 6.11736119 -2.09656316 6.11736119 -1.375 3.9375 C-1.11460937 3.20402344 -0.85421875 2.47054688 -0.5859375 1.71484375 C-0.39257812 1.14894531 -0.19921875 0.58304687 0 0 Z " fill="#D3ECD8" transform="translate(263,359)"/>
<path d="M0 0 C0.66 0 1.32 0 2 0 C2.1875 2.875 2.1875 2.875 2 6 C1.01 6.66 0.02 7.32 -1 8 C-2.33786912 9.93629932 -2.33786912 9.93629932 -3.5 12.1875 C-3.93054688 12.98800781 -4.36109375 13.78851563 -4.8046875 14.61328125 C-5.8385181 16.67756392 -6.75875227 18.73673586 -7.625 20.875 C-8.90834665 23.79169694 -9.7902441 24.88231726 -12 27 C-14.40933224 31.02091693 -14.40933224 31.02091693 -14.875 35.5625 C-15.06542214 39.27573174 -17.35396435 40.53857149 -20 43 C-22.31247295 46.30353279 -23.4298315 49.00882053 -24 53 C-24.66 53 -25.32 53 -26 53 C-26.98593656 46.47765043 -23.52073133 41.99568559 -20.3125 36.625 C-19.12547977 34.58587059 -17.94065716 32.54546063 -16.7578125 30.50390625 C-16.14196289 29.44574707 -15.52611328 28.38758789 -14.89160156 27.29736328 C-11.72285476 21.77373211 -8.70511544 16.16971227 -5.6875 10.5625 C-5.11878174 9.50820801 -4.55006348 8.45391602 -3.96411133 7.36767578 C-2.64082504 4.91280664 -1.31937156 2.45697465 0 0 Z " fill="#AFCD82" transform="translate(173,154)"/>
<path d="M0 0 C2.0078125 3.7578125 2.0078125 3.7578125 1.9375 5.9375 C0.59083145 8.9001708 -1.71080766 10.71080766 -4 13 C-5.28254644 15.53770003 -5.28254644 15.53770003 -6 18 C-7 21 -7 21 -10 23 C-10.64934531 25.05629457 -10.64934531 25.05629457 -10.9375 27.375 C-11.7262696 31.48974808 -12.75367757 33.2455446 -16 36 C-17.04349839 37.63978318 -18.05607981 39.30094366 -19 41 C-19.68798828 39.38745117 -19.68798828 39.38745117 -20 37 C-18.81591797 34.1184082 -18.81591797 34.1184082 -16.9921875 30.80078125 C-16.66969025 30.20629684 -16.34719299 29.61181244 -16.0149231 28.99931335 C-14.97958871 27.09726738 -13.92765123 25.20500689 -12.875 23.3125 C-12.18899497 22.05854888 -11.50408739 20.80399672 -10.8203125 19.54882812 C-8.89564771 16.02387049 -6.9502957 12.51084364 -5 9 C-4.20384277 7.56406494 -4.20384277 7.56406494 -3.39160156 6.09912109 C-2.26285926 4.0650749 -1.13256682 2.0319183 0 0 Z " fill="#8FBF60" transform="translate(196,112)"/>
<path d="M0 0 C1.32 0 2.64 0 4 0 C3.67 1.32 3.34 2.64 3 4 C3.99 4 4.98 4 6 4 C6 4.99 6 5.98 6 7 C7.32 7 8.64 7 10 7 C10.45375 7.78375 10.9075 8.5675 11.375 9.375 C13.45847646 12.74061582 15.24663241 13.08251014 19 14 C19.33 13.34 19.66 12.68 20 12 C20.33 12.66 20.66 13.32 21 14 C20.34 14.66 19.68 15.32 19 16 C19 18.81870287 20.18009267 19.91047677 22 22 C22.99 22.33 23.98 22.66 25 23 C25 23.99 25 24.98 25 26 C25.99 26.33 26.98 26.66 28 27 C27.34 27.99 26.68 28.98 26 30 C25.12859375 29.05640625 24.2571875 28.1128125 23.359375 27.140625 C22.15674463 25.8432913 20.95358051 24.54645227 19.75 23.25 C19.12335449 22.57420898 18.49670898 21.89841797 17.85107422 21.20214844 C13.22692608 16.2434577 8.48863763 11.42502243 3.55761719 6.77050781 C2.31633661 5.56836288 1.15036231 4.2894171 0 3 C0 2.01 0 1.02 0 0 Z M15 14 C16 16 16 16 16 16 Z " fill="#C5E4A6" transform="translate(171,244)"/>
<path d="M0 0 C0.6875 1.625 0.6875 1.625 1 4 C-0.4375 7.25 -0.4375 7.25 -2 10 C-1.34 10.66 -0.68 11.32 0 12 C-0.33 12.99 -0.66 13.98 -1 15 C-2.32 14.67 -3.64 14.34 -5 14 C-6.25664978 16.90600261 -7 18.79604584 -7 22 C-7.99 22.33 -8.98 22.66 -10 23 C-12.24302916 26.69440097 -13.63757102 30.91271307 -15 35 C-15.66 35 -16.32 35 -17 35 C-16.45099369 30.12756899 -14.9900725 26.6196593 -12.65625 22.32421875 C-12.32709595 21.71359085 -11.99794189 21.10296295 -11.65881348 20.47383118 C-10.61389164 18.54058026 -9.55696658 16.61418668 -8.5 14.6875 C-7.78961193 13.37475597 -7.07996887 12.0616085 -6.37109375 10.74804688 C-1.19280015 1.19280015 -1.19280015 1.19280015 0 0 Z " fill="#79B54B" transform="translate(214,80)"/>
<path d="M0 0 C4.33548726 3.80546655 6.57735601 9.21441977 9.26269531 14.22485352 C10.25128653 16.0648946 11.25398521 17.8967516 12.2578125 19.72851562 C12.87914062 20.88158203 13.50046875 22.03464844 14.140625 23.22265625 C14.71329102 24.28234619 15.28595703 25.34203613 15.87597656 26.43383789 C16.2469043 27.28067139 16.61783203 28.12750488 17 29 C16.67 29.66 16.34 30.32 16 31 C14.68 30.67 13.36 30.34 12 30 C12.33 29.01 12.66 28.02 13 27 C12.01 26.67 11.02 26.34 10 26 C10 25.34 10 24.68 10 24 C8.89322541 19.0201456 8.89322541 19.0201456 6 15 C5.25151494 13.68878529 4.54622517 12.35239442 3.875 11 C3.52179688 10.29875 3.16859375 9.5975 2.8046875 8.875 C2 7 2 7 2 5 C0.68 5.99 -0.64 6.98 -2 8 C-2.66 7.67 -3.32 7.34 -4 7 C-2.68 4.69 -1.36 2.38 0 0 Z " fill="#75B350" transform="translate(254,7)"/>
<path d="M0 0 C0 3 0 3 -1.609375 4.7890625 C-2.31578125 5.39492187 -3.0221875 6.00078125 -3.75 6.625 C-4.44609375 7.23601562 -5.1421875 7.84703125 -5.859375 8.4765625 C-8.00325269 10.00231487 -9.47318542 10.44976342 -12 11 C-12.598125 11.598125 -13.19625 12.19625 -13.8125 12.8125 C-15.80887607 14.80887607 -17.23289083 15.73262016 -19.6875 17 C-23.09973441 18.61467781 -23.09973441 18.61467781 -23.9375 21.25 C-23.958125 21.8275 -23.97875 22.405 -24 23 C-26.31 23.33 -28.62 23.66 -31 24 C-21.67613041 14.49363474 -11.12755807 7.19311783 0 0 Z " fill="#0F446D" transform="translate(372,221)"/>
<path d="M0 0 C0.99 0.33 1.98 0.66 3 1 C3.87890625 2.8125 3.87890625 2.8125 4.5625 5 C5.20681284 7.14541038 5.20681284 7.14541038 6 9 C6.66 9.33 7.32 9.66 8 10 C8.74023321 11.97395523 9.38761101 13.98271862 10 16 C11.8431069 22.10932725 11.8431069 22.10932725 14.75 27.75 C16 30 16 30 15.6875 32.8125 C15.460625 33.534375 15.23375 34.25625 15 35 C12.89362038 32.89362038 12.28985378 31.55623532 11.23046875 28.81640625 C10.90111328 27.97577637 10.57175781 27.13514648 10.23242188 26.26904297 C9.71518555 24.9293042 9.71518555 24.9293042 9.1875 23.5625 C6.58011514 16.9051198 3.90458314 10.34705827 0.8125 3.8984375 C0 2 0 2 0 0 Z " fill="#E2F7DF" transform="translate(228,319)"/>
<path d="M0 0 C0.99 0.33 1.98 0.66 3 1 C3.33 1.99 3.66 2.98 4 4 C4.66 4.33 5.32 4.66 6 5 C6 4.01 6 3.02 6 2 C6.66 2.33 7.32 2.66 8 3 C7.566875 3.99 7.566875 3.99 7.125 5 C6.94854097 9.23501678 8.8611117 11.14529474 11.359375 14.42578125 C12.98182569 16.3461765 12.98182569 16.3461765 16 16 C16 16.66 16 17.32 16 18 C15.34 18 14.68 18 14 18 C14.66 19.98 15.32 21.96 16 24 C12.96480053 21.11351855 10.49553041 18.09374257 8.0625 14.6875 C7.37285156 13.72585938 6.68320313 12.76421875 5.97265625 11.7734375 C5.32167969 10.85820312 4.67070312 9.94296875 4 9 C3.46246094 8.24976563 2.92492187 7.49953125 2.37109375 6.7265625 C1.24416209 5.15335306 0.12148902 3.57709394 -1 2 C-0.67 1.34 -0.34 0.68 0 0 Z " fill="#DBF0C5" transform="translate(199,273)"/>
<path d="M0 0 C2.35531693 2.98345985 4.20242433 6.04571686 5.99609375 9.39453125 C6.55490234 10.43287109 7.11371094 11.47121094 7.68945312 12.54101562 C8.26630859 13.62060547 8.84316406 14.70019531 9.4375 15.8125 C10.58129301 17.94440666 11.72580642 20.07592699 12.87109375 22.20703125 C13.67716064 23.71257568 13.67716064 23.71257568 14.49951172 25.24853516 C15.75782155 27.55591423 17.06354027 29.81799955 18.41015625 32.07421875 C20 35 20 35 20 38 C18.515 37.505 18.515 37.505 17 37 C17 36.34 17 35.68 17 35 C16.08935204 33.1425194 15.11912963 31.31417204 14.125 29.5 C13.49722656 28.34628906 12.86945313 27.19257812 12.22265625 26.00390625 C10.60996337 23.08029796 8.96444832 20.17670229 7.30859375 17.27734375 C6.62676025 16.07464844 6.62676025 16.07464844 5.93115234 14.84765625 C5.02884722 13.25872365 4.11916604 11.67395389 3.20166016 10.09375 C2.78577637 9.36027344 2.36989258 8.62679687 1.94140625 7.87109375 C1.56701416 7.22068115 1.19262207 6.57026855 0.80688477 5.90014648 C0 4 0 4 0 0 Z " fill="#87B95E" transform="translate(300,90)"/>
<path d="M0 0 C0.99 0 1.98 0 3 0 C1.27071274 5.46706961 -0.85458251 10.74948241 -3 16.0625 C-3.35578125 16.94744141 -3.7115625 17.83238281 -4.078125 18.74414062 C-4.75711045 20.43273689 -5.4367578 22.12106722 -6.1171875 23.80908203 C-7.08235004 26.20437203 -8.04262876 28.6015856 -9 31 C-9.33 31 -9.66 31 -10 31 C-9 22.42857143 -9 22.42857143 -8 19 C-7.34 19 -6.68 19 -6 19 C-5.67 16.36 -5.34 13.72 -5 11 C-4.01 10.67 -3.02 10.34 -2 10 C-2.04125 8.72125 -2.0825 7.4425 -2.125 6.125 C-2.1953125 3.9453125 -2.1953125 3.9453125 -2 2 C-1.34 1.34 -0.68 0.68 0 0 Z " fill="#E5F2F4" transform="translate(275,326)"/>
<path d="M0 0 C0.66 0 1.32 0 2 0 C1.74605469 1.00417969 1.49210937 2.00835937 1.23046875 3.04296875 C-0.94440552 11.67463349 -3.03744179 20.31716671 -5 29 C-5.33 29 -5.66 29 -6 29 C-6.02689216 27.52093108 -6.04634621 26.04172517 -6.0625 24.5625 C-6.07410156 23.73878906 -6.08570313 22.91507812 -6.09765625 22.06640625 C-6 20 -6 20 -5 19 C-4.92794489 17.31391034 -4.91613932 15.62499341 -4.9375 13.9375 C-4.94652344 13.01839844 -4.95554687 12.09929687 -4.96484375 11.15234375 C-4.97644531 10.44207031 -4.98804688 9.73179687 -5 9 C-4.34 8.67 -3.68 8.34 -3 8 C-2.09656316 6.11736119 -2.09656316 6.11736119 -1.375 3.9375 C-0.98441406 2.83728516 -0.98441406 2.83728516 -0.5859375 1.71484375 C-0.39257812 1.14894531 -0.19921875 0.58304687 0 0 Z " fill="#EEF6F5" transform="translate(263,359)"/>
<path d="M0 0 C0.66 0 1.32 0 2 0 C2.1875 2.875 2.1875 2.875 2 6 C1.01 6.66 0.02 7.32 -1 8 C-3.87694795 12.34530121 -6.25726227 17.08864822 -8 22 C-8.66 22 -9.32 22 -10 22 C-9.42770367 16.80771145 -6.9017839 12.6896297 -4.4375 8.1875 C-4.01275391 7.39923828 -3.58800781 6.61097656 -3.15039062 5.79882812 C-2.10603446 3.8626622 -1.0557923 1.92994633 0 0 Z " fill="#9FC670" transform="translate(173,154)"/>
<path d="M0 0 C0.66 0.33 1.32 0.66 2 1 C1.195625 2.36125 1.195625 2.36125 0.375 3.75 C-1.35632457 6.80683603 -1.35632457 6.80683603 -0.1875 9.1875 C0.204375 9.785625 0.59625 10.38375 1 11 C1 14 1 14 0 16 C-2.64 14.35 -5.28 12.7 -8 11 C-7.01 10.67 -6.02 10.34 -5 10 C-4.29373761 8.01363702 -3.63106429 6.01151741 -3 4 C-1.375 1.625 -1.375 1.625 0 0 Z " fill="#B2D187" transform="translate(143,210)"/>
<path d="M0 0 C0.66 0 1.32 0 2 0 C2.33 0.66 2.66 1.32 3 2 C5.01669827 3.13350534 5.01669827 3.13350534 7 4 C7 5.65 7 7.3 7 9 C8.65 8.67 10.3 8.34 12 8 C12 8.66 12 9.32 12 10 C11.34 10 10.68 10 10 10 C10 10.66 10 11.32 10 12 C6.76138697 10.55575365 4.38030837 8.74227753 1.75 6.375 C1.04359375 5.74335938 0.3371875 5.11171875 -0.390625 4.4609375 C-0.92171875 3.97882813 -1.4528125 3.49671875 -2 3 C-1.34 2.67 -0.68 2.34 0 2 C0 1.34 0 0.68 0 0 Z " fill="#BBDE97" transform="translate(161,234)"/>
<path d="M0 0 C1.65 0.33 3.3 0.66 5 1 C1.0580583 5.88049925 -3.11950075 10.0580583 -8 14 C-7.28479446 10.64403555 -6.40498457 9.40498457 -4 7 C-3.835 6.29875 -3.67 5.5975 -3.5 4.875 C-3.335 4.25625 -3.17 3.6375 -3 3 C-2.01 2.67 -1.02 2.34 0 2 C0 1.34 0 0.68 0 0 Z " fill="#CEE1AD" transform="translate(332,246)"/>
<path d="M0 0 C0.66 0.66 1.32 1.32 2 2 C1.34 2.66 0.68 3.32 0 4 C0 6.81870287 1.18009267 7.91047677 3 10 C3.99 10.33 4.98 10.66 6 11 C6 11.99 6 12.98 6 14 C6.99 14.33 7.98 14.66 9 15 C8.01 16.485 8.01 16.485 7 18 C5.12983659 16.09692171 3.27975833 14.17977121 1.4375 12.25 C0.90447266 11.71117187 0.37144531 11.17234375 -0.17773438 10.6171875 C-1.69140625 9.015625 -1.69140625 9.015625 -4 6 C-3.64428711 3.81152344 -3.64428711 3.81152344 -3 2 C-2.01 2 -1.02 2 0 2 C0 1.34 0 0.68 0 0 Z " fill="#D6EDB8" transform="translate(190,256)"/>
<path d="M0 0 C2.0078125 3.7578125 2.0078125 3.7578125 1.9375 5.9375 C0.59083145 8.9001708 -1.71080766 10.71080766 -4 13 C-4.71162443 14.64797236 -5.39031953 16.31165408 -6 18 C-6.66 18.33 -7.32 18.66 -8 19 C-7.46199791 14.01400883 -5.88255471 10.48164295 -3.4375 6.125 C-2.79683594 4.97257812 -2.15617188 3.82015625 -1.49609375 2.6328125 C-0.75552734 1.32957031 -0.75552734 1.32957031 0 0 Z " fill="#89BB59" transform="translate(196,112)"/>
<path d="M0 0 C0.61254883 1.78149414 0.61254883 1.78149414 1 4 C-0.34670302 6.6145319 -1.71771715 8.98417239 -3.3125 11.4375 C-4.14530215 12.74655685 -4.974814 14.05771362 -5.80078125 15.37109375 C-6.19217285 15.99226074 -6.58356445 16.61342773 -6.98681641 17.25341797 C-8.13367743 19.12666375 -8.13367743 19.12666375 -9.10546875 21.84765625 C-10 24 -10 24 -13 26 C-11.36036204 20.05384306 -8.37624538 14.96477922 -5.375 9.625 C-4.6015625 8.23474609 -4.6015625 8.23474609 -3.8125 6.81640625 C-2.54617189 4.54170575 -1.27524075 2.26971208 0 0 Z " fill="#217351" transform="translate(108,225)"/>
<path d="M0 0 C0.721875 0.103125 1.44375 0.20625 2.1875 0.3125 C-0.76221605 3.35439468 -3.79976771 6.27672641 -6.9375 9.125 C-7.60007812 9.72957031 -8.26265625 10.33414063 -8.9453125 10.95703125 C-10.8125 12.3125 -10.8125 12.3125 -13.8125 12.3125 C-13.4375 10.375 -13.4375 10.375 -12.8125 8.3125 C-12.1525 7.9825 -11.4925 7.6525 -10.8125 7.3125 C-10.1525 7.6425 -9.4925 7.9725 -8.8125 8.3125 C-8.4825 7.3225 -8.1525 6.3325 -7.8125 5.3125 C-3.7099359 0.4122151 -3.7099359 0.4122151 0 0 Z " fill="#BED8A8" transform="translate(349.8125,234.6875)"/>
<path d="M0 0 C0.99 0.495 0.99 0.495 2 1 C2.40729228 3.32156597 2.74438677 5.6568787 3 8 C3.66 8 4.32 8 5 8 C4.67 9.98 4.34 11.96 4 14 C4.99 14.33 5.98 14.66 7 15 C6.67 16.32 6.34 17.64 6 19 C5.34 19 4.68 19 4 19 C3.32263519 16.96185767 2.65856466 14.91929445 2 12.875 C1.62875 11.73804688 1.2575 10.60109375 0.875 9.4296875 C0.03088051 6.12104059 -0.16509276 3.39471984 0 0 Z " fill="#DFF2D5" transform="translate(249,375)"/>
<path d="M0 0 C0.66 1.32 1.32 2.64 2 4 C1.3503125 4.556875 1.3503125 4.556875 0.6875 5.125 C-2.13482209 8.26091343 -4.0744341 11.39966694 -3.875 15.6875 C-3.91625 16.450625 -3.9575 17.21375 -4 18 C-6.5 19.8125 -6.5 19.8125 -9 21 C-8.71125 20.505 -8.4225 20.01 -8.125 19.5 C-6.84006403 16.87231223 -6.84006403 16.87231223 -6.1875 13.3125 C-5.04461886 8.37859847 -2.60722053 4.29892852 0 0 Z " fill="#A8CB79" transform="translate(162,174)"/>
<path d="M0 0 C3.21029714 1.10699901 4.00968977 2.01603825 5.8125 5 C6.204375 5.99 6.59625 6.98 7 8 C6.67 8.66 6.34 9.32 6 10 C4.68 9.67 3.36 9.34 2 9 C2.33 8.01 2.66 7.02 3 6 C2.01 5.67 1.02 5.34 0 5 C0 3.33333333 0 1.66666667 0 0 Z " fill="#6AB03F" transform="translate(264,28)"/>
<path d="M0 0 C0.33 0.66 0.66 1.32 1 2 C-0.23697917 3.46484375 -1.47395833 4.9296875 -2.7109375 6.39453125 C-3.89201099 7.8655046 -4.95358529 9.43037794 -6 11 C-7.32 10.67 -8.64 10.34 -10 10 C-6.7 6.7 -3.4 3.4 0 0 Z " fill="#10416D" transform="translate(331,253)"/>
<path d="M0 0 C0.66 0.33 1.32 0.66 2 1 C0.6302836 4.99500618 -1.25722422 7.80009492 -4 11 C-4 7.72724974 -3.70074844 5.153368 -3 2 C-2.01 2 -1.02 2 0 2 C0 1.34 0 0.68 0 0 Z " fill="#E4F0D7" transform="translate(297,288)"/>
<path d="M0 0 C0.33 1.32 0.66 2.64 1 4 C-0.3921875 5.11375 -0.3921875 5.11375 -1.8125 6.25 C-4.27126958 8.29025561 -6.21647549 10.32471323 -8 13 C-8.66 12.67 -9.32 12.34 -10 12 C-6.7 8.04 -3.4 4.08 0 0 Z " fill="#194672" transform="translate(314,271)"/>
<path d="M0 0 C0.66 0 1.32 0 2 0 C0.22054913 4.04420651 -2.39529673 7.46078487 -5 11 C-5.58203125 9.140625 -5.58203125 9.140625 -6 7 C-4.6875 4.75 -4.6875 4.75 -3 3 C-2.34 3 -1.68 3 -1 3 C-0.67 2.01 -0.34 1.02 0 0 Z " fill="#D3E7D1" transform="translate(305,279)"/>
<path d="M0 0 C0.66 1.32 1.32 2.64 2 4 C0.6875 5.5 0.6875 5.5 -1 7 C-1.99 7 -2.98 7 -4 7 C-3.67 5.02 -3.34 3.04 -3 1 C-2.01 0.67 -1.02 0.34 0 0 Z " fill="#64B036" transform="translate(229,57)"/>
<path d="M0 0 C3.465 1.98 3.465 1.98 7 4 C6.67 5.32 6.34 6.64 6 8 C5.01 8 4.02 8 3 8 C0 2.25 0 2.25 0 0 Z " fill="#E1F3D7" transform="translate(223,310)"/>
<path d="M0 0 C3.10551666 3.10551666 3.81323934 4.89198233 5 9 C3.35 9 1.7 9 0 9 C0 6.03 0 3.06 0 0 Z " fill="#15447B" transform="translate(498,404)"/>
<path d="M0 0 C3.03520175 1.76237521 3.89045606 2.61659622 4.875 6.0625 C4.91625 7.031875 4.9575 8.00125 5 9 C4.34 9.66 3.68 10.32 3 11 C2.49384702 9.73160474 1.99530901 8.46016898 1.5 7.1875 C1.2215625 6.47980469 0.943125 5.77210938 0.65625 5.04296875 C0 3 0 3 0 0 Z " fill="#E7FAE9" transform="translate(239,343)"/>
<path d="M0 0 C1.20371769 3.61115306 0.71183147 4.24109758 -0.875 7.5625 C-1.24367188 8.34753906 -1.61234375 9.13257813 -1.9921875 9.94140625 C-2.65585155 11.29703011 -3.32499392 12.64998784 -4 14 C-4.66 14 -5.32 14 -6 14 C-4.50829734 9.0276578 -2.39542583 4.58154261 0 0 Z " fill="#164272" transform="translate(281,320)"/>
<path d="M0 0 C2.97069541 2.54631035 4.4775751 5.42230149 6 9 C5.67 9.66 5.34 10.32 5 11 C3.68 10.34 2.36 9.68 1 9 C1.020625 8.2575 1.04125 7.515 1.0625 6.75 C1.00671312 4.29537721 0.6930096 2.33890739 0 0 Z " fill="#97C067" transform="translate(327,140)"/>
<path d="M0 0 C0.99266409 2.68019304 1.066309 3.80580936 0.125 6.5625 C-0.24625 7.366875 -0.6175 8.17125 -1 9 C-1.33 9.99 -1.66 10.98 -2 12 C-2.66 12 -3.32 12 -4 12 C-3.45660208 7.43545749 -2.20536179 4.0271824 0 0 Z " fill="#81B752" transform="translate(201,103)"/>
<path d="M0 0 C0.33 0.66 0.66 1.32 1 2 C1.66 2.33 2.32 2.66 3 3 C2.34 3 1.68 3 1 3 C0.71125 3.5775 0.4225 4.155 0.125 4.75 C-0.91666667 6.83333333 -1.95833333 8.91666667 -3 11 C-3.66 11 -4.32 11 -5 11 C-3.77472971 6.94718288 -2.30119506 3.55639236 0 0 Z " fill="#1F7350" transform="translate(68,298)"/>
<path d="M0 0 C1.32 0.33 2.64 0.66 4 1 C1.03 4.96 1.03 4.96 -2 9 C-2.66 8.67 -3.32 8.34 -4 8 C-2.68 5.36 -1.36 2.72 0 0 Z " fill="#1F714E" transform="translate(48,334)"/>
<path d="M0 0 C0.99 0.33 1.98 0.66 3 1 C1.50902342 4.7952131 -0.75700849 6.61042731 -4 9 C-3.42618522 5.67187429 -2.40619252 4.30157545 0 2 C0 1.34 0 0.68 0 0 Z " fill="#C7DCBA" transform="translate(328,251)"/>
<path d="M0 0 C2.625 -0.1875 2.625 -0.1875 5 0 C2.42215154 2.64752004 0.08351902 4.94432065 -3 7 C-2.38722388 4.03824877 -1.74627478 2.61941217 0 0 Z " fill="#AACEA2" transform="translate(347,235)"/>
<path d="M0 0 C0.66 0.33 1.32 0.66 2 1 C0.75 3.9375 0.75 3.9375 -1 7 C-3.1875 7.875 -3.1875 7.875 -5 8 C-1.125 1.125 -1.125 1.125 0 0 Z " fill="#184573" transform="translate(302,286)"/>
<path d="M0 0 C0.33 0 0.66 0 1 0 C0.51171875 6.0546875 0.51171875 6.0546875 0 8 C-0.99 8.66 -1.98 9.32 -3 10 C-2.49287967 6.28111761 -1.88391785 3.26545761 0 0 Z " fill="#99C168" transform="translate(179,143)"/>
<path d="M0 0 C1.03348696 3.10046087 1.17755913 4.05610218 0 7 C-0.99 7.33 -1.98 7.66 -3 8 C-3 8.66 -3 9.32 -3 10 C-3.66 9.67 -4.32 9.34 -5 9 C-3.35 6.03 -1.7 3.06 0 0 Z " fill="#257352" transform="translate(13,398)"/>
<path d="M0 0 C0.33 0 0.66 0 1 0 C2.125 5.75 2.125 5.75 1 8 C0.01 8 -0.98 8 -2 8 C-1.125 1.125 -1.125 1.125 0 0 Z " fill="#275281" transform="translate(262,370)"/>
<path d="M0 0 C0.66 0 1.32 0 2 0 C0.125 5.75 0.125 5.75 -1 8 C-1.66 8 -2.32 8 -3 8 C-2.45276317 4.62537285 -1.9451 2.91765 0 0 Z " fill="#D6E6E5" transform="translate(280,318)"/>
<path d="M0 0 C0.66 0 1.32 0 2 0 C3.6875 1.8125 3.6875 1.8125 5 4 C4.67 4.99 4.34 5.98 4 7 C3.01 6.67 2.02 6.34 1 6 C0.67 4.02 0.34 2.04 0 0 Z " fill="#EAF0C9" transform="translate(304,272)"/>
<path d="M0 0 C0.66 1.32 1.32 2.64 2 4 C0.35 5.98 -1.3 7.96 -3 10 C-3.66 9.67 -4.32 9.34 -5 9 C-3.35 6.03 -1.7 3.06 0 0 Z " fill="#1E744F" transform="translate(114,214)"/>
<path d="M0 0 C1.32 1.65 2.64 3.3 4 5 C3.34 5.66 2.68 6.32 2 7 C1.01 6.67 0.02 6.34 -1 6 C-0.67 4.02 -0.34 2.04 0 0 Z " fill="#14437D" transform="translate(469,351)"/>
<path d="M0 0 C0.99 0 1.98 0 3 0 C2.34 1.98 1.68 3.96 1 6 C0.34 6 -0.32 6 -1 6 C-1.625 4.125 -1.625 4.125 -2 2 C-1.34 1.34 -0.68 0.68 0 0 Z " fill="#E5F0E8" transform="translate(275,326)"/>
<path d="M0 0 C0.12375 0.515625 0.2475 1.03125 0.375 1.5625 C1.18641628 4.72702351 2.0945913 7.86124985 3 11 C0.28676594 8.6567524 -1.0465616 6.46704871 -2 3 C-1.34 2.01 -0.68 1.02 0 0 Z " fill="#D7F0CD" transform="translate(220,299)"/>
<path d="M0 0 C2.97 1.65 5.94 3.3 9 5 C7.68 5.33 6.36 5.66 5 6 C4.01 5.34 3.02 4.68 2 4 C2 3.34 2 2.68 2 2 C1.34 2 0.68 2 0 2 C0 1.34 0 0.68 0 0 Z " fill="#1B7438" transform="translate(139,223)"/>
<path d="M0 0 C0 3 0 3 -1 5 C-3.01920337 3.69593116 -5.01924973 2.36176581 -7 1 C-7 0.67 -7 0.34 -7 0 C-2.25 -1.125 -2.25 -1.125 0 0 Z " fill="#98CD7D" transform="translate(144,221)"/>
<path d="M0 0 C0 0.66 0 1.32 0 2 C-2.60582371 2.93065133 -3.64198224 3.14917407 -6.25 2.0625 C-6.8275 1.711875 -7.405 1.36125 -8 1 C-4.93251126 -0.86240388 -3.40254489 -1.2151946 0 0 Z " fill="#17457B" transform="translate(394,212)"/>
<path d="M0 0 C0.66 0.33 1.32 0.66 2 1 C2 1.66 2 2.32 2 3 C1.34 3 0.68 3 0 3 C-0.33 4.32 -0.66 5.64 -1 7 C-1.99 7 -2.98 7 -4 7 C-2.68 4.69 -1.36 2.38 0 0 Z " fill="#7FB55D" transform="translate(254,7)"/>
<path d="M0 0 C0.66 0 1.32 0 2 0 C1.34 3.3 0.68 6.6 0 10 C-0.33 10 -0.66 10 -1 10 C-1.02689216 8.52093108 -1.04634621 7.04172517 -1.0625 5.5625 C-1.07410156 4.73878906 -1.08570313 3.91507812 -1.09765625 3.06640625 C-1 1 -1 1 0 0 Z " fill="#E6F4ED" transform="translate(258,378)"/>
<path d="M0 0 C0.6875 1.6875 0.6875 1.6875 1 4 C-0.3125 6.75 -0.3125 6.75 -2 9 C-2.66 9 -3.32 9 -4 9 C-2.80100302 5.9168649 -1.52299523 2.93720508 0 0 Z " fill="#247553" transform="translate(57,318)"/>
<path d="M0 0 C2.32947183 2.11770166 3.88750845 4.03335588 5 7 C4.67 7.99 4.34 8.98 4 10 C1.80902348 6.6659053 0.56545837 3.95820859 0 0 Z " fill="#92BE68" transform="translate(321,129)"/>
<path d="M0 0 C0.66 1.32 1.32 2.64 2 4 C0.625 5.5 0.625 5.5 -1 7 C-1.66 7 -2.32 7 -3 7 C-2.38722388 4.03824877 -1.74627478 2.61941217 0 0 Z " fill="#61B131" transform="translate(244,28)"/>
</svg>
