<?xml version="1.0"?>
<svg width="30" height="33.3" xmlns="http://www.w3.org/2000/svg" xmlns:svg="http://www.w3.org/2000/svg" preserveAspectRatio="xMidYMid meet" version="1.0">
 <g class="layer">
  <title>Layer 1</title>
  <g fill="#000000" id="svg_3" transform="matrix(0.00348479 0 0 -0.00350245 408.78 1074.54)">
   <path d="m-113211.11,306552.92c-568,-117 -1062,-635 -1414,-1484c-23,-54 -46,-102 -52,-106c-6,-3 -33,-2 -62,2c-265,42 -723,54 -972,24c-446,-52 -779,-192 -1025,-431c-222,-216 -319,-442 -344,-804c-5,-81 12,-271 34,-380c78,-375 281,-788 587,-1193c41,-54 78,-108 82,-120c6,-17 -11,-46 -92,-155c-250,-336 -431,-675 -528,-991c-127,-412 -105,-810 61,-1118c53,-99 110,-172 207,-264c203,-194 473,-323 826,-394c289,-58 805,-60 1152,-5c37,6 71,7 75,3c4,-4 24,-51 45,-103c182,-450 430,-839 702,-1100c459,-441 986,-538 1494,-273c283,147 569,437 792,805c80,131 228,429 286,573c38,95 42,100 68,98c15,-1 89,-9 163,-18c206,-25 611,-31 797,-11c360,38 646,132 882,290c290,194 449,440 506,785c25,145 16,389 -19,551c-81,378 -283,789 -586,1190c-62,82 -80,112 -80,132c0,8 32,56 71,108c347,461 559,919 619,1338c18,124 8,373 -20,497c-37,165 -96,298 -181,411c-250,331 -634,521 -1179,580c-179,20 -531,19 -730,-1c-85,-9 -182,-19 -215,-22l-60,-5l-49,118c-218,527 -532,971 -856,1215c-179,135 -421,242 -610,269c-103,15 -275,10 -375,-11zm349,-711c189,-59 437,-300 617,-601c264,-442 467,-1047 584,-1732l24,-139l-39,-58c-61,-92 -75,-144 -75,-283c1,-107 4,-127 28,-184c52,-124 156,-226 275,-271c70,-27 215,-37 292,-21c137,29 271,133 329,253c42,89 54,156 48,263c-6,112 -32,184 -99,271c-48,64 -50,67 -68,187c-26,167 -74,413 -117,590c-19,82 -33,150 -31,152c6,7 195,24 333,30c334,16 684,-47 870,-157c186,-110 260,-241 257,-451c-4,-294 -177,-682 -486,-1092c-224,-298 -624,-708 -944,-968l-62,-51l-133,-1c-112,-1 -140,-4 -187,-23c-126,-51 -233,-157 -281,-279c-20,-50 -23,-76 -23,-183c0,-106 3,-134 22,-181c50,-125 158,-233 280,-280c71,-27 214,-36 294,-20c136,29 267,130 328,255c30,59 45,76 154,163c143,114 234,194 412,360l132,123l70,-98c266,-369 422,-739 424,-1007c2,-200 -61,-322 -218,-425c-132,-86 -304,-142 -529,-170c-77,-10 -474,-14 -525,-6c-14,2 -59,7 -100,11c-337,29 -803,139 -1230,288c-379,133 -365,126 -395,201c-52,128 -171,236 -306,277c-93,28 -245,24 -332,-10c-133,-52 -246,-175 -288,-312c-28,-93 -23,-243 10,-331c47,-121 148,-223 273,-275c53,-22 83,-27 183,-31c119,-4 121,-4 280,-67c183,-72 520,-187 674,-231c57,-16 106,-35 108,-41c7,-19 -165,-363 -242,-482c-186,-292 -407,-500 -596,-562c-184,-59 -361,6 -573,211c-267,258 -490,665 -674,1230c-92,283 -189,693 -233,986l-12,82l41,61c63,95 77,146 77,286c-1,100 -5,129 -24,177c-47,121 -160,233 -279,279c-70,26 -215,36 -292,20c-147,-32 -265,-127 -334,-270l-41,-86l0,-125c0,-113 3,-131 27,-188c15,-35 47,-89 71,-121c40,-53 45,-67 56,-147c25,-185 133,-725 157,-789c3,-7 -3,-16 -13,-19c-104,-32 -578,-40 -753,-12c-256,40 -449,118 -569,231c-75,72 -103,122 -127,234c-18,86 -18,136 2,252c85,508 564,1187 1274,1808c252,221 219,202 362,205c100,2 133,7 178,25c127,51 234,157 280,278c34,88 39,239 12,330c-50,162 -180,287 -343,329c-46,12 -91,15 -161,12c-87,-4 -105,-9 -181,-45c-109,-53 -176,-119 -228,-226c-35,-73 -46,-86 -131,-154c-134,-108 -358,-304 -466,-408c-51,-49 -99,-91 -106,-93c-7,-2 -47,46 -88,105c-309,441 -457,849 -404,1113c22,107 45,155 107,219c123,128 329,214 604,253c114,16 503,16 650,0c447,-50 1007,-195 1506,-389l117,-45l32,-64c60,-123 194,-227 328,-255c87,-18 224,-7 300,24c126,52 224,151 273,275c20,49 23,75 23,182c0,106 -3,133 -22,182c-49,121 -161,233 -280,279c-66,25 -222,37 -288,21c-36,-8 -52,-5 -140,31c-164,65 -469,172 -644,225c-140,43 -165,53 -162,69c6,34 141,304 209,416c171,284 396,514 578,592c62,26 156,44 200,39c22,-3 71,-14 109,-26z" id="svg_4"/>
  </g>
 </g>
</svg>